<mxfile>
    <diagram id="HKwjNPF6fREp209hluvR" name="Page-1">
        <mxGraphModel dx="662" dy="464" grid="1" gridSize="10" guides="1" tooltips="1" connect="1" arrows="1" fold="1" page="1" pageScale="1" pageWidth="850" pageHeight="1100" math="0" shadow="0">
            <root>
                <mxCell id="0"/>
                <mxCell id="1" parent="0"/>
                <mxCell id="7" style="edgeStyle=orthogonalEdgeStyle;rounded=0;orthogonalLoop=1;jettySize=auto;html=1;exitX=1;exitY=0.25;exitDx=0;exitDy=0;" edge="1" parent="1" source="2" target="6">
                    <mxGeometry relative="1" as="geometry"/>
                </mxCell>
                <mxCell id="2" value="SkyNetMasterCloud" style="rounded=1;whiteSpace=wrap;html=1;" vertex="1" parent="1">
                    <mxGeometry x="142" y="240" width="405" height="300" as="geometry"/>
                </mxCell>
                <mxCell id="3" value="ESP32" style="rounded=0;whiteSpace=wrap;html=1;fillColor=#008a00;strokeColor=#005700;fontColor=#ffffff;" vertex="1" parent="1">
                    <mxGeometry x="224" y="270" width="120" height="60" as="geometry"/>
                </mxCell>
                <mxCell id="4" value="HW-084&lt;br&gt;RTC" style="rounded=0;whiteSpace=wrap;html=1;fillColor=#1ba1e2;strokeColor=#006EAF;fontColor=#ffffff;" vertex="1" parent="1">
                    <mxGeometry x="429" y="270" width="70" height="50" as="geometry"/>
                </mxCell>
                <mxCell id="5" value="WS2812B led strip" style="rounded=0;whiteSpace=wrap;html=1;fillColor=#6a00ff;strokeColor=#3700CC;fontColor=#ffffff;" vertex="1" parent="1">
                    <mxGeometry x="439" y="365" width="70" height="50" as="geometry"/>
                </mxCell>
                <mxCell id="6" value="Get requests:&lt;br&gt;/GET/TIME&lt;br&gt;/GET/CURRENT_WHEATHER&lt;br&gt;/GET/DO_RAIN" style="text;html=1;strokeColor=none;fillColor=none;align=left;verticalAlign=middle;whiteSpace=wrap;rounded=0;" vertex="1" parent="1">
                    <mxGeometry x="630" y="280" width="191" height="60" as="geometry"/>
                </mxCell>
            </root>
        </mxGraphModel>
    </diagram>
</mxfile>